<mxfile host="app.diagrams.net" agent="Mozilla/5.0 (Windows NT 10.0; Win64; x64) AppleWebKit/537.36 (KHTML, like Gecko) Chrome/129.0.0.0 Safari/537.36" version="24.7.17">
  <diagram name="Page-1" id="jYpGHb8xBEurPYT_IFz7">
    <mxGraphModel dx="1588" dy="945" grid="1" gridSize="10" guides="1" tooltips="1" connect="1" arrows="1" fold="1" page="1" pageScale="1" pageWidth="827" pageHeight="1169" math="0" shadow="0">
      <root>
        <mxCell id="0" />
        <mxCell id="1" parent="0" />
        <mxCell id="bHDifDo2Sf9Dqb0Yw24R-6" value="" style="rounded=0;whiteSpace=wrap;html=1;" vertex="1" parent="1">
          <mxGeometry x="190" y="100" width="470" height="790" as="geometry" />
        </mxCell>
        <mxCell id="bHDifDo2Sf9Dqb0Yw24R-7" value="Potential Customers" style="shape=umlActor;verticalLabelPosition=bottom;verticalAlign=top;html=1;outlineConnect=0;" vertex="1" parent="1">
          <mxGeometry x="60" y="140" width="30" height="60" as="geometry" />
        </mxCell>
        <mxCell id="bHDifDo2Sf9Dqb0Yw24R-8" value="Register" style="ellipse;whiteSpace=wrap;html=1;" vertex="1" parent="1">
          <mxGeometry x="280" y="160" width="70" height="40" as="geometry" />
        </mxCell>
        <mxCell id="bHDifDo2Sf9Dqb0Yw24R-11" value="" style="endArrow=none;html=1;rounded=0;entryX=0;entryY=0.5;entryDx=0;entryDy=0;" edge="1" parent="1" source="bHDifDo2Sf9Dqb0Yw24R-7" target="bHDifDo2Sf9Dqb0Yw24R-8">
          <mxGeometry width="50" height="50" relative="1" as="geometry">
            <mxPoint x="130" y="190" as="sourcePoint" />
            <mxPoint x="180" y="140" as="targetPoint" />
          </mxGeometry>
        </mxCell>
        <mxCell id="bHDifDo2Sf9Dqb0Yw24R-14" value="account authentication" style="ellipse;whiteSpace=wrap;html=1;" vertex="1" parent="1">
          <mxGeometry x="480" y="130" width="100" height="50" as="geometry" />
        </mxCell>
        <mxCell id="bHDifDo2Sf9Dqb0Yw24R-15" value="&amp;lt;&amp;lt;include&amp;gt;&amp;gt;" style="html=1;verticalAlign=bottom;labelBackgroundColor=none;endArrow=open;endFill=0;dashed=1;rounded=0;exitX=0;exitY=0.5;exitDx=0;exitDy=0;entryX=1;entryY=0.5;entryDx=0;entryDy=0;" edge="1" parent="1" source="bHDifDo2Sf9Dqb0Yw24R-14" target="bHDifDo2Sf9Dqb0Yw24R-8">
          <mxGeometry width="160" relative="1" as="geometry">
            <mxPoint x="300" y="310" as="sourcePoint" />
            <mxPoint x="460" y="310" as="targetPoint" />
          </mxGeometry>
        </mxCell>
        <mxCell id="bHDifDo2Sf9Dqb0Yw24R-16" value="Customer" style="shape=umlActor;verticalLabelPosition=bottom;verticalAlign=top;html=1;outlineConnect=0;" vertex="1" parent="1">
          <mxGeometry x="70" y="340" width="30" height="60" as="geometry" />
        </mxCell>
        <mxCell id="bHDifDo2Sf9Dqb0Yw24R-17" value="" style="endArrow=classic;html=1;rounded=0;" edge="1" parent="1">
          <mxGeometry width="50" height="50" relative="1" as="geometry">
            <mxPoint x="80" y="320" as="sourcePoint" />
            <mxPoint x="80" y="240" as="targetPoint" />
          </mxGeometry>
        </mxCell>
        <mxCell id="bHDifDo2Sf9Dqb0Yw24R-18" value="View Products" style="ellipse;whiteSpace=wrap;html=1;" vertex="1" parent="1">
          <mxGeometry x="300" y="210" width="80" height="40" as="geometry" />
        </mxCell>
        <mxCell id="bHDifDo2Sf9Dqb0Yw24R-19" value="" style="endArrow=none;html=1;rounded=0;entryX=0;entryY=0.5;entryDx=0;entryDy=0;" edge="1" target="bHDifDo2Sf9Dqb0Yw24R-18" parent="1" source="bHDifDo2Sf9Dqb0Yw24R-7">
          <mxGeometry width="50" height="50" relative="1" as="geometry">
            <mxPoint x="110" y="261" as="sourcePoint" />
            <mxPoint x="200" y="230" as="targetPoint" />
          </mxGeometry>
        </mxCell>
        <mxCell id="bHDifDo2Sf9Dqb0Yw24R-20" value="" style="endArrow=none;html=1;rounded=0;entryX=0;entryY=0.5;entryDx=0;entryDy=0;" edge="1" target="bHDifDo2Sf9Dqb0Yw24R-21" parent="1" source="bHDifDo2Sf9Dqb0Yw24R-7">
          <mxGeometry width="50" height="50" relative="1" as="geometry">
            <mxPoint x="100" y="260.33" as="sourcePoint" />
            <mxPoint x="210" y="313.33" as="targetPoint" />
          </mxGeometry>
        </mxCell>
        <mxCell id="bHDifDo2Sf9Dqb0Yw24R-21" value="See Introduction" style="ellipse;whiteSpace=wrap;html=1;" vertex="1" parent="1">
          <mxGeometry x="310" y="270" width="90" height="46.67" as="geometry" />
        </mxCell>
        <mxCell id="bHDifDo2Sf9Dqb0Yw24R-22" value="Search infomation" style="ellipse;whiteSpace=wrap;html=1;" vertex="1" parent="1">
          <mxGeometry x="323" y="353.33" width="90" height="46.67" as="geometry" />
        </mxCell>
        <mxCell id="bHDifDo2Sf9Dqb0Yw24R-23" value="" style="endArrow=none;html=1;rounded=0;entryX=0;entryY=0.5;entryDx=0;entryDy=0;" edge="1" target="bHDifDo2Sf9Dqb0Yw24R-22" parent="1" source="bHDifDo2Sf9Dqb0Yw24R-7">
          <mxGeometry width="50" height="50" relative="1" as="geometry">
            <mxPoint x="110" y="271.04" as="sourcePoint" />
            <mxPoint x="230" y="402.37" as="targetPoint" />
          </mxGeometry>
        </mxCell>
        <mxCell id="bHDifDo2Sf9Dqb0Yw24R-26" value="Login" style="ellipse;whiteSpace=wrap;html=1;" vertex="1" parent="1">
          <mxGeometry x="323" y="450" width="90" height="46.67" as="geometry" />
        </mxCell>
        <mxCell id="bHDifDo2Sf9Dqb0Yw24R-27" value="" style="endArrow=none;html=1;rounded=0;entryX=0;entryY=0.5;entryDx=0;entryDy=0;exitX=0.5;exitY=0.5;exitDx=0;exitDy=0;exitPerimeter=0;" edge="1" parent="1" source="bHDifDo2Sf9Dqb0Yw24R-16" target="bHDifDo2Sf9Dqb0Yw24R-26">
          <mxGeometry width="50" height="50" relative="1" as="geometry">
            <mxPoint x="90" y="249.78" as="sourcePoint" />
            <mxPoint x="330" y="509.78" as="targetPoint" />
          </mxGeometry>
        </mxCell>
        <mxCell id="bHDifDo2Sf9Dqb0Yw24R-32" value="&amp;lt;&amp;lt;include&amp;gt;&amp;gt;" style="html=1;verticalAlign=bottom;labelBackgroundColor=none;endArrow=open;endFill=0;dashed=1;rounded=0;exitX=0;exitY=0.5;exitDx=0;exitDy=0;entryX=1;entryY=0.5;entryDx=0;entryDy=0;" edge="1" source="bHDifDo2Sf9Dqb0Yw24R-33" parent="1" target="bHDifDo2Sf9Dqb0Yw24R-26">
          <mxGeometry width="160" relative="1" as="geometry">
            <mxPoint x="360" y="620" as="sourcePoint" />
            <mxPoint x="410" y="490" as="targetPoint" />
          </mxGeometry>
        </mxCell>
        <mxCell id="bHDifDo2Sf9Dqb0Yw24R-33" value="Verify authentication" style="ellipse;whiteSpace=wrap;html=1;" vertex="1" parent="1">
          <mxGeometry x="500" y="420" width="100" height="50" as="geometry" />
        </mxCell>
        <mxCell id="bHDifDo2Sf9Dqb0Yw24R-35" value="Add to cart" style="ellipse;whiteSpace=wrap;html=1;" vertex="1" parent="1">
          <mxGeometry x="324" y="561" width="90" height="46.67" as="geometry" />
        </mxCell>
        <mxCell id="bHDifDo2Sf9Dqb0Yw24R-36" value="" style="endArrow=none;html=1;rounded=0;entryX=0;entryY=0.5;entryDx=0;entryDy=0;" edge="1" parent="1" source="bHDifDo2Sf9Dqb0Yw24R-16" target="bHDifDo2Sf9Dqb0Yw24R-35">
          <mxGeometry width="50" height="50" relative="1" as="geometry">
            <mxPoint x="85" y="410" as="sourcePoint" />
            <mxPoint x="323" y="513" as="targetPoint" />
          </mxGeometry>
        </mxCell>
      </root>
    </mxGraphModel>
  </diagram>
</mxfile>
